<svg width="100%" height="160px" xmlns="http://www.w3.org/2000/svg" xmlns:xlink="http://www.w3.org/1999/xlink">
    <path d="M116.353866,107.780519 C241.969109,105.513501 312.452017,46.5162134 398.848531,47.3987932 C485.245045,48.281373 587.938028,106.445113 670.123044,107.780519 C752.308061,109.115926 843.332682,25.3400667 926.460236,25.239118 C1009.58779,25.1381693 1078.3435,95.7791645 1150.46024,97.0741917 C1222.57697,98.3692189 1368.17047,18.5650512 1441.0706,20.8397498 C1441.38606,68.7138868 1441.38234,115.301827 1441.05944,160.603571 L0.943233066,157.145326 C0.90285144,117.804271 0.625460815,86.6962926 0.111061192,63.8213914 C44.9499779,78.9796511 88.9327994,108.275396 116.353866,107.780519 Z" id="path-2"></path>
        
        <path d="M1.69984699,84.8057588 C127.31509,82.9544738 177.899768,-0.248840005 264.296282,0.471889249 C350.692796,1.1926185 402.477793,76.6910613 484.662809,77.7815765 C566.847825,78.8720917 657.872446,10.4593404 741,10.376904 C824.127554,10.2944677 892.883261,67.9810718 965,69.0386125 C1037.11674,70.0961531 1154.54082,5.67332128 1247.60711,7.41155065 C1340.6734,9.14978003 1342.97381,67.8897164 1441.27512,68.3466493 C1441.87735,100.096243 1441.84632,130.857913 1441.18203,160.631658 L1.10959115,157.158123 C0.796310214,157.491164 0.993062161,133.37371 1.69984699,84.8057588 Z" id="path-5"></path>
</svg>